<svg width="2062" height="1225" viewBox="0 0 2062 1225" fill="none" xmlns="http://www.w3.org/2000/svg">
<g opacity="0.2" clip-path="url(#clip0_2570_551)">
<path d="M142.097 941C63.5443 941 0 1004.54 0 1083.1C0 1161.46 63.5443 1225.19 142.097 1225.19C220.456 1225.19 284.195 1161.65 284.195 1083.1C284 1004.54 220.456 941 142.097 941ZM142.097 1216.03C68.6122 1216.03 9.16129 1156.58 9.16129 1083.1C9.16129 1009.61 68.6122 950.161 142.097 950.161C215.583 950.161 275.034 1009.61 275.034 1083.1C275.034 1156.39 215.388 1216.03 142.097 1216.03Z" fill="white"/>
<path d="M142.099 971.604C80.6986 971.604 30.7988 1021.5 30.7988 1082.9C30.7988 1144.3 80.6986 1194.2 142.099 1194.2C203.499 1194.2 253.399 1144.5 253.399 1083.1C253.399 1021.5 203.499 971.604 142.099 971.604ZM142.099 1177.25C90.0548 1177.25 47.757 1134.95 47.757 1082.9C47.757 1030.86 90.0548 988.562 142.099 988.562C194.143 988.562 236.441 1030.86 236.441 1082.9C236.441 1134.95 194.143 1177.25 142.099 1177.25Z" fill="white"/>
<path d="M142.098 1020.53C107.597 1020.53 79.5283 1048.6 79.5283 1083.1C79.5283 1117.6 107.402 1145.67 142.098 1145.67C176.599 1145.67 204.668 1117.6 204.668 1083.1C204.473 1048.6 176.599 1020.53 142.098 1020.53ZM142.098 1116.62C123.58 1116.62 108.572 1101.61 108.572 1083.1C108.572 1064.58 123.58 1049.57 142.098 1049.57C160.616 1049.57 175.624 1064.58 175.624 1083.1C175.624 1101.61 160.616 1116.62 142.098 1116.62Z" fill="white"/>
</g>
<g opacity="0.8" clip-path="url(#clip1_2570_551)">
<path d="M1880.34 834.264C1880.34 835.784 1879.19 836.923 1877.67 836.923C1876.14 836.923 1875 835.784 1875 834.264C1875 832.745 1876.14 831.605 1877.67 831.605C1879.19 831.605 1880.34 832.872 1880.34 834.264Z" fill="white"/>
<path d="M1903.08 834.264C1903.08 835.784 1901.93 836.923 1900.41 836.923C1898.88 836.923 1897.74 835.784 1897.74 834.264C1897.74 832.745 1898.88 831.605 1900.41 831.605C1901.81 831.605 1903.08 832.872 1903.08 834.264Z" fill="white"/>
<path d="M1925.69 834.264C1925.69 835.784 1924.54 836.923 1923.02 836.923C1921.5 836.923 1920.35 835.784 1920.35 834.264C1920.35 832.745 1921.5 831.605 1923.02 831.605C1924.54 831.605 1925.69 832.872 1925.69 834.264Z" fill="white"/>
<path d="M1948.43 834.264C1948.43 835.784 1947.28 836.923 1945.76 836.923C1944.24 836.923 1943.09 835.784 1943.09 834.264C1943.09 832.745 1944.24 831.605 1945.76 831.605C1947.28 831.605 1948.43 832.872 1948.43 834.264Z" fill="white"/>
<path d="M1971.17 834.264C1971.17 835.784 1970.02 836.923 1968.5 836.923C1966.98 836.923 1965.83 835.784 1965.83 834.264C1965.83 832.745 1966.98 831.605 1968.5 831.605C1969.9 831.605 1971.17 832.872 1971.17 834.264Z" fill="white"/>
<path d="M1993.91 834.264C1993.91 835.784 1992.76 836.923 1991.24 836.923C1989.72 836.923 1988.57 835.784 1988.57 834.264C1988.57 832.745 1989.72 831.605 1991.24 831.605C1992.76 831.605 1993.91 832.872 1993.91 834.264Z" fill="white"/>
<path d="M2016.52 834.264C2016.52 835.784 2015.38 836.923 2013.85 836.923C2012.33 836.923 2011.18 835.784 2011.18 834.264C2011.18 832.745 2012.33 831.605 2013.85 831.605C2015.38 831.605 2016.52 832.872 2016.52 834.264Z" fill="white"/>
<path d="M2039.26 834.264C2039.26 835.784 2038.12 836.923 2036.59 836.923C2035.07 836.923 2033.92 835.784 2033.92 834.264C2033.92 832.745 2035.07 831.605 2036.59 831.605C2038.12 831.605 2039.26 832.872 2039.26 834.264Z" fill="white"/>
<path d="M2062 834.264C2062 835.784 2060.86 836.923 2059.33 836.923C2057.81 836.923 2056.66 835.784 2056.66 834.264C2056.66 832.745 2057.81 831.605 2059.33 831.605C2060.73 831.605 2062 832.872 2062 834.264Z" fill="white"/>
<path d="M1880.34 853.13C1880.34 854.649 1879.19 855.789 1877.67 855.789C1876.14 855.789 1875 854.649 1875 853.13C1875 851.61 1876.14 850.471 1877.67 850.471C1879.19 850.471 1880.34 851.61 1880.34 853.13Z" fill="white"/>
<path d="M1903.08 853.13C1903.08 854.649 1901.93 855.789 1900.41 855.789C1898.88 855.789 1897.74 854.649 1897.74 853.13C1897.74 851.61 1898.88 850.471 1900.41 850.471C1901.81 850.471 1903.08 851.61 1903.08 853.13Z" fill="white"/>
<path d="M1925.69 853.13C1925.69 854.649 1924.54 855.789 1923.02 855.789C1921.5 855.789 1920.35 854.649 1920.35 853.13C1920.35 851.61 1921.5 850.471 1923.02 850.471C1924.54 850.471 1925.69 851.61 1925.69 853.13Z" fill="white"/>
<path d="M1948.43 853.13C1948.43 854.649 1947.28 855.789 1945.76 855.789C1944.24 855.789 1943.09 854.649 1943.09 853.13C1943.09 851.61 1944.24 850.471 1945.76 850.471C1947.28 850.471 1948.43 851.61 1948.43 853.13Z" fill="white"/>
<path d="M1971.17 853.13C1971.17 854.649 1970.02 855.789 1968.5 855.789C1966.98 855.789 1965.83 854.649 1965.83 853.13C1965.83 851.61 1966.98 850.471 1968.5 850.471C1969.9 850.471 1971.17 851.61 1971.17 853.13Z" fill="white"/>
<path d="M1993.91 853.13C1993.91 854.649 1992.76 855.789 1991.24 855.789C1989.72 855.789 1988.57 854.649 1988.57 853.13C1988.57 851.61 1989.72 850.471 1991.24 850.471C1992.76 850.471 1993.91 851.61 1993.91 853.13Z" fill="white"/>
<path d="M2016.52 853.13C2016.52 854.649 2015.38 855.789 2013.85 855.789C2012.33 855.789 2011.18 854.649 2011.18 853.13C2011.18 851.61 2012.33 850.471 2013.85 850.471C2015.38 850.471 2016.52 851.61 2016.52 853.13Z" fill="white"/>
<path d="M2039.26 853.13C2039.26 854.649 2038.12 855.789 2036.59 855.789C2035.07 855.789 2033.92 854.649 2033.92 853.13C2033.92 851.61 2035.07 850.471 2036.59 850.471C2038.12 850.471 2039.26 851.61 2039.26 853.13Z" fill="white"/>
<path d="M2062 853.13C2062 854.649 2060.86 855.789 2059.33 855.789C2057.81 855.789 2056.66 854.649 2056.66 853.13C2056.66 851.61 2057.81 850.471 2059.33 850.471C2060.73 850.471 2062 851.61 2062 853.13Z" fill="white"/>
<path d="M1880.34 796.659C1880.34 798.178 1879.19 799.318 1877.67 799.318C1876.14 799.318 1875 798.178 1875 796.659C1875 795.14 1876.14 794 1877.67 794C1879.19 794 1880.34 795.14 1880.34 796.659Z" fill="white"/>
<path d="M1903.08 796.659C1903.08 798.178 1901.93 799.318 1900.41 799.318C1898.88 799.318 1897.74 798.178 1897.74 796.659C1897.74 795.14 1898.88 794 1900.41 794C1901.81 794 1903.08 795.14 1903.08 796.659Z" fill="white"/>
<path d="M1925.69 796.659C1925.69 798.178 1924.54 799.318 1923.02 799.318C1921.5 799.318 1920.35 798.178 1920.35 796.659C1920.35 795.14 1921.62 794 1923.02 794C1924.54 794 1925.69 795.14 1925.69 796.659Z" fill="white"/>
<path d="M1948.43 796.659C1948.43 798.178 1947.28 799.318 1945.76 799.318C1944.24 799.318 1943.09 798.178 1943.09 796.659C1943.09 795.14 1944.36 794 1945.76 794C1947.16 794 1948.43 795.14 1948.43 796.659Z" fill="white"/>
<path d="M1971.17 796.659C1971.17 798.178 1970.02 799.318 1968.5 799.318C1966.98 799.318 1965.83 798.178 1965.83 796.659C1965.83 795.14 1966.98 794 1968.5 794C1969.9 794 1971.17 795.14 1971.17 796.659Z" fill="white"/>
<path d="M1993.91 796.659C1993.91 798.178 1992.76 799.318 1991.24 799.318C1989.72 799.318 1988.57 798.178 1988.57 796.659C1988.57 795.14 1989.72 794 1991.24 794C1992.76 794 1993.91 795.14 1993.91 796.659Z" fill="white"/>
<path d="M2016.52 796.659C2016.52 798.178 2015.38 799.318 2013.85 799.318C2012.33 799.318 2011.18 798.178 2011.18 796.659C2011.18 795.14 2012.33 794 2013.85 794C2015.38 794 2016.52 795.14 2016.52 796.659Z" fill="white"/>
<path d="M2039.26 796.659C2039.26 798.178 2038.12 799.318 2036.59 799.318C2035.07 799.318 2033.92 798.178 2033.92 796.659C2033.92 795.14 2035.07 794 2036.59 794C2038.12 794 2039.26 795.14 2039.26 796.659Z" fill="white"/>
<path d="M2062 796.659C2062 798.178 2060.86 799.318 2059.33 799.318C2057.81 799.318 2056.66 798.178 2056.66 796.659C2056.66 795.14 2057.81 794 2059.33 794C2060.73 794 2062 795.14 2062 796.659Z" fill="white"/>
<path d="M1880.34 815.524C1880.34 817.044 1879.19 818.183 1877.67 818.183C1876.14 818.183 1875 816.917 1875 815.524C1875 814.005 1876.14 812.865 1877.67 812.865C1879.19 812.865 1880.34 814.005 1880.34 815.524Z" fill="white"/>
<path d="M1903.08 815.524C1903.08 817.044 1901.93 818.183 1900.41 818.183C1898.88 818.183 1897.74 817.044 1897.74 815.524C1897.74 814.005 1898.88 812.865 1900.41 812.865C1901.81 812.865 1903.08 814.005 1903.08 815.524Z" fill="white"/>
<path d="M1925.69 815.524C1925.69 817.044 1924.54 818.183 1923.02 818.183C1921.5 818.183 1920.35 817.044 1920.35 815.524C1920.35 814.005 1921.5 812.865 1923.02 812.865C1924.54 812.865 1925.69 814.005 1925.69 815.524Z" fill="white"/>
<path d="M1948.43 815.524C1948.43 817.044 1947.28 818.183 1945.76 818.183C1944.24 818.183 1943.09 817.044 1943.09 815.524C1943.09 814.005 1944.24 812.865 1945.76 812.865C1947.28 812.865 1948.43 814.005 1948.43 815.524Z" fill="white"/>
<path d="M1971.17 815.524C1971.17 817.044 1970.02 818.183 1968.5 818.183C1966.98 818.183 1965.83 817.044 1965.83 815.524C1965.83 814.005 1966.98 812.865 1968.5 812.865C1969.9 812.865 1971.17 814.005 1971.17 815.524Z" fill="white"/>
<path d="M1993.91 815.524C1993.91 817.044 1992.76 818.183 1991.24 818.183C1989.72 818.183 1988.57 817.044 1988.57 815.524C1988.57 814.005 1989.72 812.865 1991.24 812.865C1992.76 812.865 1993.91 814.005 1993.91 815.524Z" fill="white"/>
<path d="M2016.52 815.524C2016.52 817.044 2015.38 818.183 2013.85 818.183C2012.33 818.183 2011.18 817.044 2011.18 815.524C2011.18 814.005 2012.33 812.865 2013.85 812.865C2015.38 812.865 2016.52 814.005 2016.52 815.524Z" fill="white"/>
<path d="M2039.26 815.524C2039.26 817.044 2038.12 818.183 2036.59 818.183C2035.07 818.183 2033.92 817.044 2033.92 815.524C2033.92 814.005 2035.07 812.865 2036.59 812.865C2038.12 812.865 2039.26 814.005 2039.26 815.524Z" fill="white"/>
<path d="M2062 815.524C2062 817.044 2060.86 818.183 2059.33 818.183C2057.81 818.183 2056.66 817.044 2056.66 815.524C2056.66 814.005 2057.81 812.865 2059.33 812.865C2060.73 812.865 2062 814.005 2062 815.524Z" fill="white"/>
<path d="M1880.34 871.87C1880.34 873.389 1879.19 874.529 1877.67 874.529C1876.14 874.529 1875 873.389 1875 871.87C1875 870.35 1876.14 869.211 1877.67 869.211C1879.19 869.211 1880.34 870.477 1880.34 871.87Z" fill="white"/>
<path d="M1903.08 871.87C1903.08 873.389 1901.93 874.529 1900.41 874.529C1898.88 874.529 1897.74 873.389 1897.74 871.87C1897.74 870.35 1898.88 869.211 1900.41 869.211C1901.81 869.211 1903.08 870.477 1903.08 871.87Z" fill="white"/>
<path d="M1925.69 871.87C1925.69 873.389 1924.54 874.529 1923.02 874.529C1921.5 874.529 1920.35 873.389 1920.35 871.87C1920.35 870.35 1921.5 869.211 1923.02 869.211C1924.54 869.211 1925.69 870.477 1925.69 871.87Z" fill="white"/>
<path d="M1948.43 871.87C1948.43 873.389 1947.28 874.529 1945.76 874.529C1944.24 874.529 1943.09 873.389 1943.09 871.87C1943.09 870.35 1944.24 869.211 1945.76 869.211C1947.28 869.211 1948.43 870.477 1948.43 871.87Z" fill="white"/>
<path d="M1971.17 871.87C1971.17 873.389 1970.02 874.529 1968.5 874.529C1966.98 874.529 1965.83 873.389 1965.83 871.87C1965.83 870.35 1966.98 869.211 1968.5 869.211C1969.9 869.211 1971.17 870.477 1971.17 871.87Z" fill="white"/>
<path d="M1993.91 871.87C1993.91 873.389 1992.76 874.529 1991.24 874.529C1989.72 874.529 1988.57 873.389 1988.57 871.87C1988.57 870.35 1989.72 869.211 1991.24 869.211C1992.76 869.211 1993.91 870.477 1993.91 871.87Z" fill="white"/>
<path d="M2016.52 871.87C2016.52 873.389 2015.38 874.529 2013.85 874.529C2012.33 874.529 2011.18 873.389 2011.18 871.87C2011.18 870.35 2012.33 869.211 2013.85 869.211C2015.38 869.211 2016.52 870.477 2016.52 871.87Z" fill="white"/>
<path d="M2039.26 871.87C2039.26 873.389 2038.12 874.529 2036.59 874.529C2035.07 874.529 2033.92 873.389 2033.92 871.87C2033.92 870.35 2035.07 869.211 2036.59 869.211C2038.12 869.211 2039.26 870.477 2039.26 871.87Z" fill="white"/>
<path d="M2062 871.87C2062 873.389 2060.86 874.529 2059.33 874.529C2057.81 874.529 2056.66 873.389 2056.66 871.87C2056.66 870.35 2057.81 869.211 2059.33 869.211C2060.73 869.211 2062 870.477 2062 871.87Z" fill="white"/>
<path d="M1880.34 890.735C1880.34 892.255 1879.19 893.394 1877.67 893.394C1876.14 893.394 1875 892.255 1875 890.735C1875 889.216 1876.14 888.076 1877.67 888.076C1879.19 888.076 1880.34 889.216 1880.34 890.735Z" fill="white"/>
<path d="M1903.08 890.735C1903.08 892.255 1901.93 893.394 1900.41 893.394C1898.88 893.394 1897.74 892.255 1897.74 890.735C1897.74 889.216 1898.88 888.076 1900.41 888.076C1901.81 888.076 1903.08 889.216 1903.08 890.735Z" fill="white"/>
<path d="M1925.69 890.735C1925.69 892.255 1924.54 893.394 1923.02 893.394C1921.5 893.394 1920.35 892.255 1920.35 890.735C1920.35 889.216 1921.5 888.076 1923.02 888.076C1924.54 888.076 1925.69 889.216 1925.69 890.735Z" fill="white"/>
<path d="M1945.76 893.394C1947.23 893.394 1948.43 892.204 1948.43 890.735C1948.43 889.267 1947.23 888.076 1945.76 888.076C1944.29 888.076 1943.09 889.267 1943.09 890.735C1943.09 892.204 1944.29 893.394 1945.76 893.394Z" fill="white"/>
<path d="M1971.17 890.735C1971.17 892.255 1970.02 893.394 1968.5 893.394C1966.98 893.394 1965.83 892.255 1965.83 890.735C1965.83 889.216 1966.98 888.076 1968.5 888.076C1969.9 888.076 1971.17 889.216 1971.17 890.735Z" fill="white"/>
<path d="M1993.91 890.735C1993.91 892.255 1992.76 893.394 1991.24 893.394C1989.72 893.394 1988.57 892.255 1988.57 890.735C1988.57 889.216 1989.72 888.076 1991.24 888.076C1992.76 888.076 1993.91 889.216 1993.91 890.735Z" fill="white"/>
<path d="M2016.52 890.735C2016.52 892.255 2015.38 893.394 2013.85 893.394C2012.33 893.394 2011.18 892.255 2011.18 890.735C2011.18 889.216 2012.33 888.076 2013.85 888.076C2015.38 888.076 2016.52 889.216 2016.52 890.735Z" fill="white"/>
<path d="M2036.59 893.394C2038.07 893.394 2039.26 892.204 2039.26 890.735C2039.26 889.267 2038.07 888.076 2036.59 888.076C2035.12 888.076 2033.92 889.267 2033.92 890.735C2033.92 892.204 2035.12 893.394 2036.59 893.394Z" fill="white"/>
<path d="M2062 890.735C2062 892.255 2060.86 893.394 2059.33 893.394C2057.81 893.394 2056.66 892.255 2056.66 890.735C2056.66 889.216 2057.81 888.076 2059.33 888.076C2060.73 888.076 2062 889.216 2062 890.735Z" fill="white"/>
<path d="M1880.34 909.602C1880.34 911.122 1879.19 912.261 1877.67 912.261C1876.14 912.261 1875 911.122 1875 909.602C1875 908.083 1876.14 906.943 1877.67 906.943C1879.19 906.943 1880.34 908.083 1880.34 909.602Z" fill="white"/>
<path d="M1903.08 909.602C1903.08 911.122 1901.93 912.261 1900.41 912.261C1898.88 912.261 1897.74 911.122 1897.74 909.602C1897.74 908.083 1898.88 906.943 1900.41 906.943C1901.81 906.943 1903.08 908.083 1903.08 909.602Z" fill="white"/>
<path d="M1925.69 909.602C1925.69 911.122 1924.54 912.261 1923.02 912.261C1921.5 912.261 1920.35 911.122 1920.35 909.602C1920.35 908.083 1921.5 906.943 1923.02 906.943C1924.54 906.943 1925.69 908.083 1925.69 909.602Z" fill="white"/>
<path d="M1948.43 909.602C1948.43 911.122 1947.28 912.261 1945.76 912.261C1944.24 912.261 1943.09 911.122 1943.09 909.602C1943.09 908.083 1944.24 906.943 1945.76 906.943C1947.28 906.943 1948.43 908.083 1948.43 909.602Z" fill="white"/>
<path d="M1971.17 909.602C1971.17 911.122 1970.02 912.261 1968.5 912.261C1966.98 912.261 1965.83 911.122 1965.83 909.602C1965.83 908.083 1966.98 906.943 1968.5 906.943C1969.9 906.943 1971.17 908.083 1971.17 909.602Z" fill="white"/>
<path d="M1993.91 909.602C1993.91 911.122 1992.76 912.261 1991.24 912.261C1989.72 912.261 1988.57 911.122 1988.57 909.602C1988.57 908.083 1989.72 906.943 1991.24 906.943C1992.76 906.943 1993.91 908.083 1993.91 909.602Z" fill="white"/>
<path d="M2016.52 909.602C2016.52 911.122 2015.38 912.261 2013.85 912.261C2012.33 912.261 2011.18 911.122 2011.18 909.602C2011.18 908.083 2012.33 906.943 2013.85 906.943C2015.38 906.943 2016.52 908.083 2016.52 909.602Z" fill="white"/>
<path d="M2039.26 909.602C2039.26 911.122 2038.12 912.261 2036.59 912.261C2035.07 912.261 2033.92 911.122 2033.92 909.602C2033.92 908.083 2035.07 906.943 2036.59 906.943C2038.12 906.943 2039.26 908.083 2039.26 909.602Z" fill="white"/>
<path d="M2062 909.602C2062 911.122 2060.86 912.261 2059.33 912.261C2057.81 912.261 2056.66 911.122 2056.66 909.602C2056.66 908.083 2057.81 906.943 2059.33 906.943C2060.73 906.943 2062 908.083 2062 909.602Z" fill="white"/>
<path d="M1880.34 928.341C1880.34 929.86 1879.19 931 1877.67 931C1876.14 931 1875 929.86 1875 928.341C1875 926.821 1876.14 925.682 1877.67 925.682C1879.19 925.682 1880.34 926.948 1880.34 928.341Z" fill="white"/>
<path d="M1903.08 928.341C1903.08 929.86 1901.93 931 1900.41 931C1898.88 931 1897.74 929.86 1897.74 928.341C1897.74 926.821 1898.88 925.682 1900.41 925.682C1901.81 925.682 1903.08 926.948 1903.08 928.341Z" fill="white"/>
<path d="M1925.69 928.341C1925.69 929.86 1924.54 931 1923.02 931C1921.5 931 1920.35 929.86 1920.35 928.341C1920.35 926.821 1921.5 925.682 1923.02 925.682C1924.54 925.682 1925.69 926.948 1925.69 928.341Z" fill="white"/>
<path d="M1948.43 928.341C1948.43 929.86 1947.28 931 1945.76 931C1944.24 931 1943.09 929.86 1943.09 928.341C1943.09 926.821 1944.24 925.682 1945.76 925.682C1947.28 925.682 1948.43 926.948 1948.43 928.341Z" fill="white"/>
<path d="M1971.17 928.341C1971.17 929.86 1970.02 931 1968.5 931C1966.98 931 1965.83 929.86 1965.83 928.341C1965.83 926.821 1966.98 925.682 1968.5 925.682C1969.9 925.682 1971.17 926.948 1971.17 928.341Z" fill="white"/>
<path d="M1993.91 928.341C1993.91 929.86 1992.76 931 1991.24 931C1989.72 931 1988.57 929.86 1988.57 928.341C1988.57 926.821 1989.72 925.682 1991.24 925.682C1992.76 925.682 1993.91 926.948 1993.91 928.341Z" fill="white"/>
<path d="M2016.52 928.341C2016.52 929.86 2015.38 931 2013.85 931C2012.33 931 2011.18 929.86 2011.18 928.341C2011.18 926.821 2012.33 925.682 2013.85 925.682C2015.38 925.682 2016.52 926.948 2016.52 928.341Z" fill="white"/>
<path d="M2039.26 928.341C2039.26 929.86 2038.12 931 2036.59 931C2035.07 931 2033.92 929.86 2033.92 928.341C2033.92 926.821 2035.07 925.682 2036.59 925.682C2038.12 925.682 2039.26 926.948 2039.26 928.341Z" fill="white"/>
<path d="M2062 928.341C2062 929.86 2060.86 931 2059.33 931C2057.81 931 2056.66 929.86 2056.66 928.341C2056.66 926.821 2057.81 925.682 2059.33 925.682C2060.73 925.682 2062 926.948 2062 928.341Z" fill="white"/>
</g>
<g opacity="0.3">
<path d="M1873.81 120.221L1883.47 129.88L1857.78 155.563L1832.1 129.88L1841.68 120.294L1857.71 136.319L1873.81 120.221Z" fill="white"/>
<path d="M1873.81 85.5386L1883.39 95.1241L1857.71 120.807L1832.1 95.1973L1841.76 85.5386L1857.78 101.563L1873.81 85.5386Z" fill="white"/>
<path d="M1873.73 50.7816L1883.39 60.4404L1857.78 86.0506L1832.1 60.3672L1841.68 50.7816L1857.71 66.8063L1873.73 50.7816Z" fill="white"/>
<path d="M1873.81 16.0239L1883.46 25.6826L1857.78 51.366L1832.1 25.6826L1841.76 16.0239L1857.78 32.0486L1873.81 16.0239Z" fill="white"/>
</g>
<path opacity="0.3" d="M906 853.553C892.071 867.482 869.377 867.482 855.447 853.553C841.518 839.623 841.518 816.929 855.447 803L906 853.553Z" fill="white"/>
<g opacity="0.3">
<path d="M960.486 574.89C971.205 574.89 979.937 566.165 979.937 555.453C979.937 544.742 971.205 536.017 960.486 536.017L960.486 574.89Z" fill="white"/>
<path d="M930.141 574.89C940.861 574.89 949.592 566.165 949.592 555.453C949.592 544.742 940.861 536.017 930.141 536.017L930.141 574.89Z" fill="white"/>
<path d="M899.796 574.89C910.515 574.89 919.247 566.165 919.247 555.453C919.247 544.742 910.515 536.017 899.796 536.017L899.796 574.89Z" fill="white"/>
</g>
<g opacity="0.3">
<path d="M258.301 189.921L258.301 178L290 178L290 209.699L278.169 209.699L278.169 189.921L258.301 189.921Z" fill="white"/>
<path d="M236.898 211.325L236.898 199.494L268.597 199.494L268.597 231.103L256.676 231.103L256.676 211.325L236.898 211.325Z" fill="white"/>
<path d="M215.495 232.819L215.495 220.898L247.103 220.898L247.103 252.597L235.272 252.597L235.272 232.819L215.495 232.819Z" fill="white"/>
<path d="M194 254.222L194 242.301L225.699 242.301L225.699 274L213.778 274L213.778 254.222L194 254.222Z" fill="white"/>
</g>
<defs>
<clipPath id="clip0_2570_551">
<rect width="284" height="284" fill="white" transform="translate(0 941)"/>
</clipPath>
<clipPath id="clip1_2570_551">
<rect width="187" height="137" fill="white" transform="translate(1875 794)"/>
</clipPath>
</defs>
</svg>
